<mxfile host="drawio-plugin" modified="2021-12-13T14:03:17.998Z" agent="5.0 (Windows NT 6.2; Win64; x64) AppleWebKit/537.36 (KHTML, like Gecko) Chrome/89.0.4389.114 Safari/537.36" version="14.7.4" etag="Ni0T-fIGvu8_YjD7X5H4" type="embed"><diagram id="44Yfg6BHZQwHoDzSKdo_" name="Page-1"><mxGraphModel dx="942" dy="469" grid="1" gridSize="10" guides="1" tooltips="1" connect="1" arrows="1" fold="1" page="1" pageScale="1" pageWidth="850" pageHeight="1100" math="0" shadow="0"><root><mxCell id="0"/><mxCell id="1" parent="0"/><mxCell id="2" value="navbar" style="rounded=0;whiteSpace=wrap;html=1;" vertex="1" parent="1"><mxGeometry x="40" y="80" width="760" height="80" as="geometry"/></mxCell><mxCell id="3" value="search" style="rounded=0;whiteSpace=wrap;html=1;fillColor=#fff2cc;strokeColor=#d6b656;" vertex="1" parent="1"><mxGeometry x="480" y="100" width="70" height="40" as="geometry"/></mxCell><mxCell id="4" value="notifications" style="rounded=0;whiteSpace=wrap;html=1;fillColor=#dae8fc;strokeColor=#6c8ebf;" vertex="1" parent="1"><mxGeometry x="600" y="100" width="80" height="40" as="geometry"/></mxCell><mxCell id="5" value="help" style="rounded=0;whiteSpace=wrap;html=1;fillColor=#dae8fc;strokeColor=#6c8ebf;" vertex="1" parent="1"><mxGeometry x="680" y="100" width="40" height="40" as="geometry"/></mxCell><mxCell id="6" value="setings" style="rounded=0;whiteSpace=wrap;html=1;fillColor=#dae8fc;strokeColor=#6c8ebf;" vertex="1" parent="1"><mxGeometry x="720" y="100" width="40" height="40" as="geometry"/></mxCell><mxCell id="7" value="user" style="rounded=0;whiteSpace=wrap;html=1;fillColor=#fff2cc;strokeColor=#d6b656;" vertex="1" parent="1"><mxGeometry x="760" y="100" width="40" height="40" as="geometry"/></mxCell><mxCell id="8" value="logout" style="rounded=0;whiteSpace=wrap;html=1;fillColor=#e1d5e7;strokeColor=#9673a6;" vertex="1" parent="1"><mxGeometry x="760" y="140" width="40" height="40" as="geometry"/></mxCell><mxCell id="9" value="logo" style="rounded=0;whiteSpace=wrap;html=1;fillColor=#dae8fc;strokeColor=#6c8ebf;" vertex="1" parent="1"><mxGeometry x="40" y="100" width="80" height="40" as="geometry"/></mxCell><mxCell id="10" value="projects" style="rounded=0;whiteSpace=wrap;html=1;fillColor=#dae8fc;strokeColor=#6c8ebf;" vertex="1" parent="1"><mxGeometry x="120" y="100" width="80" height="40" as="geometry"/></mxCell><mxCell id="11" value="users" style="rounded=0;whiteSpace=wrap;html=1;fillColor=#dae8fc;strokeColor=#6c8ebf;" vertex="1" parent="1"><mxGeometry x="200" y="100" width="80" height="40" as="geometry"/></mxCell><mxCell id="12" value="sidebar" style="rounded=0;whiteSpace=wrap;html=1;fillColor=#d5e8d4;strokeColor=#82b366;" vertex="1" parent="1"><mxGeometry x="40" y="270" width="200" height="330" as="geometry"/></mxCell><mxCell id="13" value="content" style="rounded=0;whiteSpace=wrap;html=1;" vertex="1" parent="1"><mxGeometry x="240" y="270" width="560" height="330" as="geometry"/></mxCell><mxCell id="14" value="create issue" style="rounded=0;whiteSpace=wrap;html=1;fillColor=#dae8fc;strokeColor=#6c8ebf;" vertex="1" parent="1"><mxGeometry x="280" y="100" width="80" height="40" as="geometry"/></mxCell><mxCell id="15" value="board" style="rounded=0;whiteSpace=wrap;html=1;fillColor=#dae8fc;strokeColor=#6c8ebf;" vertex="1" parent="1"><mxGeometry x="60" y="380" width="60" height="40" as="geometry"/></mxCell><mxCell id="16" value="backlog" style="rounded=0;whiteSpace=wrap;html=1;fillColor=#dae8fc;strokeColor=#6c8ebf;" vertex="1" parent="1"><mxGeometry x="60" y="330" width="60" height="40" as="geometry"/></mxCell><mxCell id="17" value="image" style="rounded=0;whiteSpace=wrap;html=1;" vertex="1" parent="1"><mxGeometry x="50" y="280" width="50" height="30" as="geometry"/></mxCell><mxCell id="18" value="project name" style="rounded=0;whiteSpace=wrap;html=1;" vertex="1" parent="1"><mxGeometry x="110" y="280" width="50" height="30" as="geometry"/></mxCell><mxCell id="19" value="search" style="rounded=0;whiteSpace=wrap;html=1;fillColor=#e1d5e7;strokeColor=#9673a6;" vertex="1" parent="1"><mxGeometry x="550" y="100" width="50" height="40" as="geometry"/></mxCell><mxCell id="20" value="layout" style="rounded=0;whiteSpace=wrap;html=1;fillColor=#ffff88;strokeColor=#36393d;fontStyle=1" vertex="1" parent="1"><mxGeometry x="40" y="40" width="120" height="40" as="geometry"/></mxCell><mxCell id="21" value="header" style="rounded=0;whiteSpace=wrap;html=1;fillColor=#d5e8d4;strokeColor=#82b366;" vertex="1" parent="1"><mxGeometry x="40" y="230" width="760" height="40" as="geometry"/></mxCell><mxCell id="22" value="footer" style="rounded=0;whiteSpace=wrap;html=1;fillColor=#d5e8d4;strokeColor=#82b366;" vertex="1" parent="1"><mxGeometry x="40" y="600" width="760" height="40" as="geometry"/></mxCell></root></mxGraphModel></diagram></mxfile>